<?xml version="1.0" encoding="UTF-8" standalone="no"?>
<!DOCTYPE svg PUBLIC "-//W3C//DTD SVG 1.1//EN" "http://www.w3.org/Graphics/SVG/1.1/DTD/svg11.dtd">
<svg width="100%" height="100%" viewBox="0 0 16000 9000" version="1.1" xmlns="http://www.w3.org/2000/svg" xmlns:xlink="http://www.w3.org/1999/xlink" xml:space="preserve" xmlns:serif="http://www.serif.com/" style="fill-rule:evenodd;clip-rule:evenodd;stroke-miterlimit:10;">
    <g transform="matrix(1,0,0,1,-36000,0)">
        <g id="Time" transform="matrix(4.16667,0,0,4.16667,36000,0)">
            <rect x="0" y="0" width="3840" height="2160" style="fill:none;"/>
            <g id="Layer-1" serif:id="Layer 1">
            </g>
            <g id="Circle:-Outer" serif:id="Circle: Outer" transform="matrix(0,-1,-1,0,1920.29,268.811)">
                <path d="M-809.471,-809.471C-1256.53,-809.471 -1618.94,-447.058 -1618.94,0C-1618.94,447.058 -1256.53,809.471 -809.471,809.471C-362.413,809.471 0,447.058 0,0C0,-447.058 -362.413,-809.471 -809.471,-809.471Z" style="fill:none;fill-rule:nonzero;stroke:rgb(35,31,32);stroke-width:3.49px;stroke-dasharray:6.99,6.99;"/>
            </g>
            <g id="Inner-Circle" serif:id="Inner Circle" transform="matrix(0,-1,-1,0,1918.11,624.647)">
                <path d="M-455.818,-455.819C-707.56,-455.819 -911.637,-251.742 -911.637,0C-911.637,251.741 -707.56,455.818 -455.818,455.818C-204.076,455.818 0,251.741 0,0C0,-251.742 -204.076,-455.819 -455.818,-455.819Z" style="fill:none;fill-rule:nonzero;stroke:rgb(35,31,32);stroke-width:34.93px;"/>
            </g>
            <g id="Circle-Arrow" serif:id="Circle Arrow">
                <g transform="matrix(-0.992851,-0.119361,-0.119361,0.992851,1850.46,1256.28)">
                    <path d="M-71.715,-395.337C-161.768,-384.584 -236.229,-313.646 -247.535,-219.606C-260.804,-109.234 -182.088,-9.004 -71.715,4.265C38.656,17.534 138.886,-61.183 152.155,-171.555C165.145,-279.607 89.975,-377.939 -16.749,-394.474" style="fill:none;fill-rule:nonzero;stroke:rgb(35,31,32);stroke-width:5.24px;stroke-dasharray:6.97,6.97;"/>
                </g>
                <g transform="matrix(0.186228,-0.982507,-0.982507,-0.186228,1978.73,916.245)">
                    <path d="M-23.479,28.347L34.225,28.347" style="fill:none;fill-rule:nonzero;stroke:rgb(35,31,32);stroke-width:5.24px;stroke-dasharray:7.69,7.69;"/>
                </g>
                <g transform="matrix(0,1,1,0,1950.02,906.569)">
                    <path d="M-28.867,-28.867L28.867,-28.867" style="fill:none;fill-rule:nonzero;stroke:rgb(35,31,32);stroke-width:5.24px;stroke-dasharray:7.7,7.7;"/>
                </g>
                <g transform="matrix(-0.977096,0.2128,0.2128,0.977096,1938.31,958.609)">
                    <path d="M-20.671,-14.95L-10.131,-14.95L-2.815,-22.537L-2.75,2.422L-20.671,-14.95Z" style="fill:rgb(35,31,32);fill-rule:nonzero;"/>
                </g>
                <g transform="matrix(0.186362,-0.982481,-0.982481,-0.186362,1946.38,943.948)">
                    <path d="M-1.421,1.716L2.072,1.716" style="fill:none;fill-rule:nonzero;stroke:rgb(35,31,32);stroke-width:5.24px;"/>
                </g>
                <g transform="matrix(1,0,0,1,1957.97,870.128)">
                    <path d="M0,3.432L0.65,0C1.796,0.216 2.938,0.442 4.077,0.677" style="fill:none;fill-rule:nonzero;stroke:rgb(35,31,32);stroke-width:5.24px;"/>
                </g>
                <g transform="matrix(1,0,0,1,1917.66,869.974)">
                    <path d="M0,-3.433C1.162,-3.453 2.326,-3.463 3.493,-3.463L3.493,0.03" style="fill:none;fill-rule:nonzero;stroke:rgb(35,31,32);stroke-width:5.24px;"/>
                </g>
                <g transform="matrix(0,1,1,0,1922.9,941.031)">
                    <path d="M-1.747,-1.747L1.747,-1.747" style="fill:none;fill-rule:nonzero;stroke:rgb(35,31,32);stroke-width:5.24px;"/>
                </g>
            </g>
            <g id="Red-Triangles" serif:id="Red Triangles">
                <g transform="matrix(1,0,0,1,2059.73,876.132)">
                    <path d="M0,408.665L-0.165,0L-141.625,204.332L0,408.665Z" style="fill:rgb(237,28,36);fill-rule:nonzero;stroke:rgb(35,31,32);stroke-width:1px;"/>
                </g>
                <g transform="matrix(1,0,0,1,1776.48,1284.8)">
                    <path d="M0,-408.665L0.164,0L141.625,-204.332L0,-408.665Z" style="fill:rgb(237,28,36);fill-rule:nonzero;stroke:rgb(35,31,32);stroke-width:1px;"/>
                </g>
            </g>
            <g id="Lattice">
                <text x="1933.82px" y="2070.69px" style="font-family:'LucidaBlackletter', 'Lucida Blackletter';font-size:66.364px;fill:rgb(35,31,32);">c</text>
                <g transform="matrix(1,0,0,1,1959.26,2049.85)">
                    <path d="M0,5.703C-2.29,9.549 -5.109,12.508 -8.458,14.582C-13.923,12.183 -16.656,7.02 -16.656,-0.907C-16.656,-5.056 -15.965,-8.22 -14.582,-10.402C-11.925,-9.041 -9.387,-8.36 -6.967,-8.36C-6.06,-8.36 -5.185,-8.426 -4.342,-8.555C-3.5,-8.685 -2.689,-8.879 -1.912,-9.139C-0.551,-11.32 0.335,-13.459 0.745,-15.555C-0.356,-15.014 -1.421,-14.609 -2.446,-14.339C-3.473,-14.068 -4.472,-13.934 -5.444,-13.934C-7.604,-13.934 -9.635,-14.604 -11.536,-15.943C-15.489,-12.552 -19.108,-8.544 -22.392,-3.921C-22.564,-1.674 -22.65,-0.032 -22.65,1.004C-22.65,6.557 -21.771,10.802 -20.01,13.739C-18.249,16.678 -15.015,19.312 -10.305,21.646C-4.947,17.433 -0.983,12.552 1.588,6.999L0,5.703Z" style="fill:none;fill-rule:nonzero;stroke:rgb(35,31,32);stroke-width:1px;stroke-miterlimit:4;"/>
                </g>
                <g transform="matrix(0.422886,0.906183,0.906183,-0.422886,2091.26,1845.24)">
                    <path d="M-34.908,-54.812L86.066,-54.812" style="fill:none;fill-rule:nonzero;stroke:rgb(35,31,32);stroke-width:3.49px;stroke-miterlimit:4;"/>
                </g>
                <g transform="matrix(-0.522563,0.8526,0.8526,0.522563,1901.99,1792.21)">
                    <path d="M-67.43,-37.76L21.144,-37.76" style="fill:none;fill-rule:nonzero;stroke:rgb(35,31,32);stroke-width:3.49px;stroke-miterlimit:4;"/>
                </g>
                <g transform="matrix(-0.568003,0.823026,0.823026,0.568003,1919.4,1740.36)">
                    <path d="M-82.38,-43.241L22.696,-43.241" style="fill:none;fill-rule:nonzero;stroke:rgb(35,31,32);stroke-width:3.49px;stroke-miterlimit:4;"/>
                </g>
                <g transform="matrix(0.869291,-0.494301,-0.494301,-0.869291,1821.59,1782.84)">
                    <path d="M-4.67,17.662L66.79,17.662" style="fill:none;fill-rule:nonzero;stroke:rgb(35,31,32);stroke-width:3.49px;stroke-miterlimit:4;"/>
                </g>
                <g transform="matrix(0.687201,0.726468,0.726468,-0.687201,1917,1717.6)">
                    <path d="M-19.405,-45.067L104.668,-45.067" style="fill:none;fill-rule:nonzero;stroke:rgb(35,31,32);stroke-width:3.49px;stroke-miterlimit:4;"/>
                </g>
                <g transform="matrix(0.755697,0.654922,0.654922,-0.755697,1849.22,1694.71)">
                    <path d="M-5.907,-15.834L42.449,-15.835" style="fill:none;fill-rule:nonzero;stroke:rgb(35,31,32);stroke-width:3.49px;stroke-miterlimit:4;"/>
                </g>
                <g transform="matrix(0.923741,0.383018,0.383018,-0.923741,1814.67,1761.02)">
                    <path d="M-2.061,-10.354L52.001,-10.354" style="fill:none;fill-rule:nonzero;stroke:rgb(35,31,32);stroke-width:3.49px;stroke-miterlimit:4;"/>
                </g>
                <g transform="matrix(0,1,1,0,2148.64,1714.99)">
                    <path d="M-121.804,-121.804L121.804,-121.804" style="fill:none;fill-rule:nonzero;stroke:rgb(35,31,32);stroke-width:3.49px;stroke-miterlimit:4;"/>
                </g>
                <g transform="matrix(0.65038,0.759609,0.759609,-0.65038,2022.58,1659.56)">
                    <path d="M-21.444,-46.591L101.226,-46.591" style="fill:none;fill-rule:nonzero;stroke:rgb(35,31,32);stroke-width:3.49px;stroke-miterlimit:4;"/>
                </g>
                <g transform="matrix(1,0,0,1,1783.22,1836.79)">
                    <path d="M0,0L243.609,0" style="fill:none;fill-rule:nonzero;stroke:rgb(35,31,32);stroke-width:3.49px;stroke-miterlimit:4;"/>
                </g>
                <g transform="matrix(0.8526,-0.522563,-0.522563,-0.8526,1800.88,1853.11)">
                    <path d="M-6.528,23.143L82.047,23.143" style="fill:none;fill-rule:nonzero;stroke:rgb(35,31,32);stroke-width:3.49px;stroke-miterlimit:4;"/>
                </g>
                <g transform="matrix(0.57938,0.815058,0.815058,-0.57938,1915.06,1782.48)">
                    <path d="M-26.086,-50.549L97.951,-50.549" style="fill:none;fill-rule:nonzero;stroke:rgb(35,31,32);stroke-width:3.49px;stroke-miterlimit:4;"/>
                </g>
                <g transform="matrix(-0.5547,0.83205,0.83205,0.5547,2018.62,1677.97)">
                    <path d="M-75.106,-40.196L21.512,-40.196" style="fill:none;fill-rule:nonzero;stroke:rgb(35,31,32);stroke-width:3.49px;stroke-miterlimit:4;"/>
                </g>
                <g transform="matrix(0.857495,0.514493,0.514493,-0.857495,1940.23,1638.85)">
                    <path d="M-3.542,-12.79L46.174,-12.789" style="fill:none;fill-rule:nonzero;stroke:rgb(35,31,32);stroke-width:3.49px;stroke-miterlimit:4;"/>
                </g>
                <g transform="matrix(0.854783,-0.518985,-0.518985,-0.854783,1920.73,1729.68)">
                    <path d="M-5.794,20.707L74.004,20.707" style="fill:none;fill-rule:nonzero;stroke:rgb(35,31,32);stroke-width:3.49px;stroke-miterlimit:4;"/>
                </g>
                <g transform="matrix(-1,0,0,1,1905.03,1724.73)">
                    <path d="M0,-19.488C-5.382,-19.488 -9.744,-15.126 -9.744,-9.744C-9.744,-4.362 -5.382,0 0,0C5.382,0 9.744,-4.362 9.744,-9.744C9.744,-15.126 5.382,-19.488 0,-19.488" style="fill:rgb(205,204,204);fill-rule:nonzero;"/>
                </g>
                <g transform="matrix(-1,0,0,1,1905.03,1724.73)">
                    <circle cx="0" cy="-9.744" r="9.744" style="fill:none;stroke:rgb(35,31,32);stroke-width:1.75px;stroke-miterlimit:4;"/>
                </g>
                <g transform="matrix(-0.521003,0.853555,0.853555,0.521003,2048.9,1865.56)">
                    <path d="M-83.564,-46.895L26.316,-46.895" style="fill:none;fill-rule:nonzero;stroke:rgb(35,31,32);stroke-width:3.49px;stroke-miterlimit:4;"/>
                </g>
                <g transform="matrix(0.917344,-0.398095,-0.398095,-0.917344,1938.85,1903.29)">
                    <path d="M-2.908,14.008L67.464,14.008" style="fill:none;fill-rule:nonzero;stroke:rgb(35,31,32);stroke-width:3.49px;stroke-miterlimit:4;"/>
                </g>
                <g transform="matrix(0.701604,0.712567,0.712567,-0.701604,1976.11,1816.63)">
                    <path d="M-8.289,-19.793L47.266,-19.793" style="fill:none;fill-rule:nonzero;stroke:rgb(35,31,32);stroke-width:3.49px;stroke-miterlimit:4;"/>
                </g>
                <g transform="matrix(0.707107,0.707107,0.707107,-0.707107,2036.58,1846.43)">
                    <path d="M-17.154,-41.414L99.981,-41.414" style="fill:none;fill-rule:nonzero;stroke:rgb(35,31,32);stroke-width:3.49px;stroke-miterlimit:4;"/>
                </g>
                <g transform="matrix(0,1,1,0,1956.19,1824.61)">
                    <path d="M-121.804,-121.804L121.804,-121.804" style="fill:none;fill-rule:nonzero;stroke:rgb(35,31,32);stroke-width:3.49px;stroke-miterlimit:4;"/>
                </g>
                <g transform="matrix(0.422886,0.906183,0.906183,-0.422886,1847.66,1845.24)">
                    <path d="M-34.908,-54.812L86.066,-54.812" style="fill:none;fill-rule:nonzero;stroke:rgb(35,31,32);stroke-width:3.49px;stroke-miterlimit:4;"/>
                </g>
                <g transform="matrix(0.422886,0.906183,0.906183,-0.422886,1847.66,1601.64)">
                    <path d="M-34.908,-54.812L86.066,-54.812" style="fill:none;fill-rule:nonzero;stroke:rgb(35,31,32);stroke-width:3.49px;stroke-miterlimit:4;"/>
                </g>
                <g transform="matrix(0,1,1,0,1905.03,1714.99)">
                    <path d="M-121.804,-121.804L121.804,-121.804" style="fill:none;fill-rule:nonzero;stroke:rgb(35,31,32);stroke-width:3.49px;stroke-miterlimit:4;"/>
                </g>
                <g transform="matrix(1,0,0,1,1834.38,1946.41)">
                    <path d="M0,0L243.609,0" style="fill:none;fill-rule:nonzero;stroke:rgb(35,31,32);stroke-width:3.49px;stroke-miterlimit:4;"/>
                </g>
                <g transform="matrix(1,0,0,1,1834.38,1702.81)">
                    <path d="M0,0L243.609,0" style="fill:none;fill-rule:nonzero;stroke:rgb(35,31,32);stroke-width:3.49px;stroke-miterlimit:4;"/>
                </g>
                <g transform="matrix(1,0,0,1,1783.22,1593.18)">
                    <path d="M0,0L243.609,0" style="fill:none;fill-rule:nonzero;stroke:rgb(35,31,32);stroke-width:3.49px;stroke-miterlimit:4;"/>
                </g>
                <g transform="matrix(0.422886,0.906183,0.906183,-0.422886,2091.26,1601.64)">
                    <path d="M-34.908,-54.812L86.066,-54.812" style="fill:none;fill-rule:nonzero;stroke:rgb(35,31,32);stroke-width:3.49px;stroke-miterlimit:4;"/>
                </g>
                <g transform="matrix(0,1,1,0,2199.8,1824.61)">
                    <path d="M-121.804,-121.804L121.804,-121.804" style="fill:none;fill-rule:nonzero;stroke:rgb(35,31,32);stroke-width:3.49px;stroke-miterlimit:4;"/>
                </g>
                <g transform="matrix(-1,0,0,1,2026.83,1602.93)">
                    <path d="M0,-19.489C-5.382,-19.489 -9.744,-15.126 -9.744,-9.744C-9.744,-4.363 -5.382,0 0,0C5.382,0 9.744,-4.363 9.744,-9.744C9.744,-15.126 5.382,-19.489 0,-19.489" style="fill:rgb(3,4,5);fill-rule:nonzero;"/>
                </g>
                <g transform="matrix(-1,0,0,1,2026.83,1602.93)">
                    <ellipse cx="0" cy="-9.744" rx="9.744" ry="9.744" style="fill:none;stroke:rgb(35,31,32);stroke-width:1.75px;stroke-miterlimit:4;"/>
                </g>
                <g transform="matrix(-1,0,0,1,1783.22,1602.93)">
                    <path d="M0,-19.489C-5.382,-19.489 -9.744,-15.126 -9.744,-9.744C-9.744,-4.363 -5.382,0 0,0C5.382,0 9.744,-4.363 9.744,-9.744C9.744,-15.126 5.382,-19.489 0,-19.489" style="fill:rgb(3,4,5);fill-rule:nonzero;"/>
                </g>
                <g transform="matrix(-1,0,0,1,1783.22,1602.93)">
                    <ellipse cx="0" cy="-9.744" rx="9.744" ry="9.744" style="fill:none;stroke:rgb(35,31,32);stroke-width:1.75px;stroke-miterlimit:4;"/>
                </g>
                <g transform="matrix(-1,0,0,1,1783.22,1846.53)">
                    <path d="M0,-19.489C-5.382,-19.489 -9.744,-15.126 -9.744,-9.745C-9.744,-4.363 -5.382,0 0,0C5.382,0 9.744,-4.363 9.744,-9.745C9.744,-15.126 5.382,-19.489 0,-19.489" style="fill:rgb(3,4,5);fill-rule:nonzero;"/>
                </g>
                <g transform="matrix(-1,0,0,1,1783.22,1846.53)">
                    <ellipse cx="0" cy="-9.744" rx="9.744" ry="9.744" style="fill:none;stroke:rgb(35,31,32);stroke-width:1.75px;stroke-miterlimit:4;"/>
                </g>
                <g transform="matrix(-1,0,0,1,1834.38,1712.55)">
                    <path d="M0,-19.489C-5.382,-19.489 -9.744,-15.126 -9.744,-9.745C-9.744,-4.363 -5.382,0 0,0C5.382,0 9.744,-4.363 9.744,-9.745C9.744,-15.126 5.382,-19.489 0,-19.489" style="fill:rgb(3,4,5);fill-rule:nonzero;"/>
                </g>
                <g transform="matrix(-1,0,0,1,1834.38,1712.55)">
                    <ellipse cx="0" cy="-9.744" rx="9.744" ry="9.744" style="fill:none;stroke:rgb(35,31,32);stroke-width:1.75px;stroke-miterlimit:4;"/>
                </g>
                <g transform="matrix(-1,0,0,1,1834.38,1956.16)">
                    <path d="M0,-19.488C-5.382,-19.488 -9.744,-15.126 -9.744,-9.744C-9.744,-4.362 -5.382,0 0,0C5.382,0 9.744,-4.362 9.744,-9.744C9.744,-15.126 5.382,-19.488 0,-19.488" style="fill:rgb(3,4,5);fill-rule:nonzero;"/>
                </g>
                <g transform="matrix(-1,0,0,1,1834.38,1956.16)">
                    <circle cx="0" cy="-9.744" r="9.744" style="fill:none;stroke:rgb(35,31,32);stroke-width:1.75px;stroke-miterlimit:4;"/>
                </g>
                <g transform="matrix(-1,0,0,1,2077.99,1956.16)">
                    <path d="M0,-19.488C-5.382,-19.488 -9.744,-15.126 -9.744,-9.744C-9.744,-4.362 -5.382,0 0,0C5.382,0 9.744,-4.362 9.744,-9.744C9.744,-15.126 5.382,-19.488 0,-19.488" style="fill:rgb(3,4,5);fill-rule:nonzero;"/>
                </g>
                <g transform="matrix(-1,0,0,1,2077.99,1956.16)">
                    <circle cx="0" cy="-9.744" r="9.744" style="fill:none;stroke:rgb(35,31,32);stroke-width:1.75px;stroke-miterlimit:4;"/>
                </g>
                <g transform="matrix(-1,0,0,1,2077.99,1712.55)">
                    <path d="M0,-19.489C-5.382,-19.489 -9.744,-15.126 -9.744,-9.745C-9.744,-4.363 -5.382,0 0,0C5.382,0 9.744,-4.363 9.744,-9.745C9.744,-15.126 5.382,-19.489 0,-19.489" style="fill:rgb(3,4,5);fill-rule:nonzero;"/>
                </g>
                <g transform="matrix(-1,0,0,1,2077.99,1712.55)">
                    <ellipse cx="0" cy="-9.744" rx="9.744" ry="9.744" style="fill:none;stroke:rgb(35,31,32);stroke-width:1.75px;stroke-miterlimit:4;"/>
                </g>
                <g transform="matrix(1,0,0,1,1789.44,1907.59)">
                    <path d="M0,-7.184C0.166,-7.936 0.276,-8.587 0.331,-9.138C0.386,-9.688 0.414,-10.285 0.414,-10.927C0.414,-12.339 0.11,-13.376 -0.497,-14.037C-1.105,-14.697 -2.136,-15.027 -3.59,-15.027C-5.486,-15.027 -7.189,-14.266 -8.699,-12.743C-10.208,-11.22 -11.387,-9.179 -12.233,-6.62C-13.08,-4.06 -13.504,-1.505 -13.504,1.045C-13.504,2.953 -13.241,4.379 -12.717,5.324C-12.192,6.269 -11.313,6.742 -10.079,6.742C-8.865,6.742 -7.673,6.219 -6.503,5.173C-5.334,4.127 -4.129,2.636 -2.886,0.701C-1.643,-1.235 -0.764,-3.469 -0.249,-6L0,-7.184ZM2.43,-15.385L4.971,-17.201L6.738,-16.761L2.678,0.687C2.274,2.43 2.071,3.788 2.071,4.76C2.071,5.494 2.191,6.026 2.43,6.356C2.669,6.687 3.047,6.852 3.562,6.852C4.115,6.852 4.704,6.627 5.33,6.177C5.956,5.728 6.839,4.87 7.981,3.604L9.555,5.146C7.898,6.907 6.485,8.159 5.316,8.902C4.147,9.645 2.881,10.017 1.519,10.017C0.377,10.017 -0.534,9.64 -1.215,8.888C-1.896,8.136 -2.237,7.136 -2.237,5.888C-2.237,4.879 -2.025,3.806 -1.602,2.669L-1.961,2.559C-3.728,5.127 -5.403,7.008 -6.987,8.2C-8.57,9.393 -10.245,9.989 -12.012,9.989C-14.038,9.989 -15.607,9.228 -16.721,7.705C-17.835,6.182 -18.392,4.045 -18.392,1.293C-18.392,-1.863 -17.77,-4.895 -16.528,-7.803C-15.285,-10.711 -13.577,-13.004 -11.405,-14.683C-9.233,-16.362 -6.812,-17.201 -4.142,-17.201C-2.946,-17.201 -1.827,-17.068 -0.787,-16.802C0.253,-16.536 1.325,-16.064 2.43,-15.385Z" style="fill:rgb(3,4,5);fill-rule:nonzero;stroke:rgb(35,31,32);stroke-width:1px;"/>
                </g>
                <g transform="matrix(1,0,0,1,1974.58,1975.8)">
                    <path d="M0,-7.184C0.166,-7.936 0.276,-8.587 0.332,-9.138C0.387,-9.688 0.414,-10.285 0.414,-10.927C0.414,-12.339 0.11,-13.376 -0.497,-14.037C-1.104,-14.697 -2.135,-15.027 -3.59,-15.027C-5.486,-15.027 -7.189,-14.266 -8.699,-12.743C-10.208,-11.22 -11.387,-9.179 -12.233,-6.62C-13.08,-4.06 -13.504,-1.505 -13.504,1.045C-13.504,2.953 -13.241,4.379 -12.717,5.324C-12.192,6.269 -11.313,6.741 -10.079,6.741C-8.865,6.741 -7.672,6.219 -6.503,5.173C-5.334,4.127 -4.128,2.636 -2.886,0.701C-1.643,-1.235 -0.764,-3.469 -0.249,-6L0,-7.184ZM2.43,-15.385L4.971,-17.201L6.738,-16.761L2.679,0.687C2.274,2.43 2.071,3.788 2.071,4.76C2.071,5.494 2.191,6.026 2.43,6.357C2.669,6.687 3.047,6.852 3.562,6.852C4.115,6.852 4.704,6.627 5.33,6.178C5.956,5.728 6.839,4.87 7.981,3.604L9.555,5.146C7.898,6.906 6.485,8.159 5.316,8.902C4.147,9.645 2.881,10.017 1.519,10.017C0.377,10.017 -0.534,9.641 -1.215,8.888C-1.896,8.136 -2.237,7.136 -2.237,5.889C-2.237,4.879 -2.025,3.806 -1.602,2.669L-1.961,2.559C-3.728,5.127 -5.403,7.008 -6.987,8.2C-8.57,9.393 -10.245,9.989 -12.012,9.989C-14.038,9.989 -15.607,9.228 -16.721,7.705C-17.835,6.182 -18.392,4.045 -18.392,1.293C-18.392,-1.863 -17.77,-4.895 -16.528,-7.803C-15.285,-10.711 -13.577,-13.004 -11.405,-14.683C-9.233,-16.362 -6.812,-17.201 -4.142,-17.201C-2.946,-17.201 -1.827,-17.068 -0.787,-16.802C0.253,-16.536 1.325,-16.064 2.43,-15.385Z" style="fill:rgb(3,4,5);fill-rule:nonzero;stroke:rgb(35,31,32);stroke-width:1px;"/>
                </g>
                <g transform="matrix(1,0,0,1,2108.56,1841.81)">
                    <path d="M0,-7.182C0.166,-7.934 0.276,-8.586 0.331,-9.136C0.386,-9.686 0.414,-10.283 0.414,-10.925C0.414,-12.338 0.11,-13.374 -0.497,-14.035C-1.104,-14.695 -2.136,-15.025 -3.59,-15.025C-5.486,-15.025 -7.189,-14.264 -8.699,-12.741C-10.208,-11.219 -11.386,-9.177 -12.233,-6.618C-13.08,-4.058 -13.504,-1.504 -13.504,1.047C-13.504,2.954 -13.241,4.381 -12.717,5.326C-12.192,6.271 -11.313,6.743 -10.08,6.743C-8.865,6.743 -7.673,6.22 -6.503,5.174C-5.334,4.129 -4.128,2.638 -2.886,0.702C-1.643,-1.233 -0.764,-3.467 -0.249,-5.999L0,-7.182ZM2.43,-15.383L4.971,-17.2L6.738,-16.759L2.678,0.689C2.273,2.432 2.071,3.789 2.071,4.762C2.071,5.496 2.191,6.027 2.43,6.358C2.669,6.688 3.047,6.853 3.562,6.853C4.115,6.853 4.704,6.629 5.33,6.179C5.956,5.73 6.839,4.872 7.981,3.606L9.555,5.147C7.898,6.908 6.485,8.161 5.316,8.903C4.147,9.647 2.881,10.018 1.519,10.018C0.377,10.018 -0.534,9.642 -1.215,8.89C-1.896,8.138 -2.237,7.138 -2.237,5.89C-2.237,4.881 -2.025,3.808 -1.602,2.67L-1.961,2.56C-3.728,5.129 -5.404,7.009 -6.987,8.202C-8.57,9.394 -10.245,9.991 -12.012,9.991C-14.038,9.991 -15.607,9.229 -16.721,7.706C-17.835,6.184 -18.392,4.046 -18.392,1.294C-18.392,-1.861 -17.77,-4.893 -16.528,-7.802C-15.285,-10.709 -13.577,-13.003 -11.405,-14.682C-9.233,-16.36 -6.812,-17.2 -4.142,-17.2C-2.946,-17.2 -1.827,-17.067 -0.787,-16.801C0.253,-16.535 1.325,-16.062 2.43,-15.383Z" style="fill:rgb(3,4,5);fill-rule:nonzero;stroke:rgb(35,31,32);stroke-width:1px;"/>
                </g>
                <g transform="matrix(-1,0,0,1,1956.19,1834.35)">
                    <path d="M0,-19.489C-5.382,-19.489 -9.744,-15.126 -9.744,-9.744C-9.744,-4.363 -5.382,0 0,0C5.382,0 9.744,-4.363 9.744,-9.744C9.744,-15.126 5.382,-19.489 0,-19.489" style="fill:rgb(3,4,5);fill-rule:nonzero;"/>
                </g>
                <g transform="matrix(-1,0,0,1,1956.19,1834.35)">
                    <ellipse cx="0" cy="-9.744" rx="9.744" ry="9.744" style="fill:none;stroke:rgb(35,31,32);stroke-width:1.75px;stroke-miterlimit:4;"/>
                </g>
                <g transform="matrix(-1,0,0,1,1808.8,1779.54)">
                    <path d="M0,-19.489C-5.382,-19.489 -9.744,-15.126 -9.744,-9.744C-9.744,-4.363 -5.382,0 0,0C5.382,0 9.744,-4.363 9.744,-9.744C9.744,-15.126 5.382,-19.489 0,-19.489" style="fill:rgb(3,4,5);fill-rule:nonzero;"/>
                </g>
                <g transform="matrix(-1,0,0,1,1808.8,1779.54)">
                    <ellipse cx="0" cy="-9.744" rx="9.744" ry="9.744" style="fill:none;stroke:rgb(35,31,32);stroke-width:1.75px;stroke-miterlimit:4;"/>
                </g>
                <g transform="matrix(-1,0,0,1,1930.61,1657.74)">
                    <path d="M0,-19.489C-5.382,-19.489 -9.744,-15.126 -9.744,-9.744C-9.744,-4.363 -5.382,0 0,0C5.382,0 9.744,-4.363 9.744,-9.744C9.744,-15.126 5.382,-19.489 0,-19.489" style="fill:rgb(3,4,5);fill-rule:nonzero;"/>
                </g>
                <g transform="matrix(-1,0,0,1,1930.61,1657.74)">
                    <ellipse cx="0" cy="-9.744" rx="9.744" ry="9.744" style="fill:none;stroke:rgb(35,31,32);stroke-width:1.75px;stroke-miterlimit:4;"/>
                </g>
                <g transform="matrix(-1,0,0,1,2026.83,1846.53)">
                    <path d="M0,-19.489C-5.382,-19.489 -9.744,-15.126 -9.744,-9.745C-9.744,-4.363 -5.382,0 0,0C5.382,0 9.744,-4.363 9.744,-9.745C9.744,-15.126 5.382,-19.489 0,-19.489" style="fill:rgb(205,204,204);fill-rule:nonzero;"/>
                </g>
                <g transform="matrix(-1,0,0,1,2026.83,1846.53)">
                    <ellipse cx="0" cy="-9.744" rx="9.744" ry="9.744" style="fill:none;stroke:rgb(35,31,32);stroke-width:1.75px;stroke-miterlimit:4;"/>
                </g>
                <g transform="matrix(-1,0,0,1,2052.41,1779.54)">
                    <path d="M0,-19.489C-5.382,-19.489 -9.744,-15.126 -9.744,-9.744C-9.744,-4.363 -5.382,0 0,0C5.382,0 9.744,-4.363 9.744,-9.744C9.744,-15.126 5.382,-19.489 0,-19.489" style="fill:rgb(128,128,128);fill-rule:nonzero;"/>
                </g>
                <g transform="matrix(-1,0,0,1,2052.41,1779.54)">
                    <ellipse cx="0" cy="-9.744" rx="9.744" ry="9.744" style="fill:none;stroke:rgb(35,31,32);stroke-width:1.75px;stroke-miterlimit:4;"/>
                </g>
                <g transform="matrix(-1,0,0,1,1930.61,1901.35)">
                    <path d="M0,-19.489C-5.382,-19.489 -9.744,-15.126 -9.744,-9.745C-9.744,-4.363 -5.382,0 0,0C5.382,0 9.744,-4.363 9.744,-9.745C9.744,-15.126 5.382,-19.489 0,-19.489" style="fill:rgb(128,128,128);fill-rule:nonzero;"/>
                </g>
                <g transform="matrix(-1,0,0,1,1930.61,1901.35)">
                    <ellipse cx="0" cy="-9.744" rx="9.744" ry="9.744" style="fill:none;stroke:rgb(35,31,32);stroke-width:1.75px;stroke-miterlimit:4;"/>
                </g>
                <g transform="matrix(-1,0,0,1,1995.16,1873.33)">
                    <path d="M0,-19.489C-5.382,-19.489 -9.744,-15.126 -9.744,-9.745C-9.744,-4.363 -5.382,0 0,0C5.382,0 9.744,-4.363 9.744,-9.745C9.744,-15.126 5.382,-19.489 0,-19.489" style="fill:white;fill-rule:nonzero;"/>
                </g>
                <g transform="matrix(-1,0,0,1,1995.16,1873.33)">
                    <ellipse cx="0" cy="-9.744" rx="9.744" ry="9.744" style="fill:none;stroke:rgb(35,31,32);stroke-width:1.75px;stroke-miterlimit:4;"/>
                </g>
                <g transform="matrix(-1,0,0,1,1858.74,1800.25)">
                    <path d="M0,-19.489C-5.382,-19.489 -9.744,-15.126 -9.744,-9.745C-9.744,-4.363 -5.382,0 0,0C5.382,0 9.744,-4.363 9.744,-9.745C9.744,-15.126 5.382,-19.489 0,-19.489" style="fill:white;fill-rule:nonzero;"/>
                </g>
                <g transform="matrix(-1,0,0,1,1858.74,1800.25)">
                    <ellipse cx="0" cy="-9.744" rx="9.744" ry="9.744" style="fill:none;stroke:rgb(35,31,32);stroke-width:1.75px;stroke-miterlimit:4;"/>
                </g>
                <g transform="matrix(-1,0,0,1,1870.92,1744.22)">
                    <path d="M0,-19.489C-5.382,-19.489 -9.744,-15.126 -9.744,-9.744C-9.744,-4.363 -5.382,0 0,0C5.382,0 9.744,-4.363 9.744,-9.744C9.744,-15.126 5.382,-19.489 0,-19.489" style="fill:white;fill-rule:nonzero;"/>
                </g>
                <g transform="matrix(-1,0,0,1,1870.92,1744.22)">
                    <ellipse cx="0" cy="-9.744" rx="9.744" ry="9.744" style="fill:none;stroke:rgb(35,31,32);stroke-width:1.75px;stroke-miterlimit:4;"/>
                </g>
                <g transform="matrix(-1,0,0,1,1973.24,1683.32)">
                    <path d="M0,-19.489C-5.382,-19.489 -9.744,-15.126 -9.744,-9.745C-9.744,-4.363 -5.382,0 0,0C5.382,0 9.744,-4.363 9.744,-9.745C9.744,-15.126 5.382,-19.489 0,-19.489" style="fill:white;fill-rule:nonzero;"/>
                </g>
                <g transform="matrix(-1,0,0,1,1973.24,1683.32)">
                    <ellipse cx="0" cy="-9.744" rx="9.744" ry="9.744" style="fill:none;stroke:rgb(35,31,32);stroke-width:1.75px;stroke-miterlimit:4;"/>
                </g>
                <g>
                    <g>
                        <text x="1997.34px" y="1902.57px" style="font-family:'TimesNewRomanPSMT', 'Times New Roman', serif;font-size:34.105px;fill:rgb(3,4,5);">a</text>
                        <g transform="matrix(1,0,0,1,2007.54,1887.44)">
                            <path d="M0,14.855C0.322,15.233 0.755,15.421 1.299,15.421C2.432,15.421 3.619,14.588 4.863,12.923L4.863,11.991C4.197,12.657 3.747,13.062 3.514,13.207C3.381,13.285 3.226,13.323 3.048,13.323C2.881,13.323 2.734,13.268 2.606,13.157C2.479,13.045 2.387,12.827 2.332,12.499C2.276,12.171 2.248,11.281 2.248,9.826L2.248,4.647C2.248,3.17 2.148,2.194 1.948,1.716C1.638,0.983 1.154,0.445 0.5,0.101C-0.366,-0.354 -1.477,-0.583 -2.831,-0.583C-4.596,-0.583 -5.967,-0.182 -6.944,0.617C-7.921,1.417 -8.409,2.293 -8.409,3.248C-8.409,3.748 -8.279,4.142 -8.019,4.43C-7.758,4.719 -7.422,4.864 -7.011,4.864C-6.589,4.864 -6.247,4.725 -5.986,4.447C-5.726,4.169 -5.595,3.776 -5.595,3.265L-5.629,2.298C-5.629,1.81 -5.418,1.377 -4.996,1C-4.585,0.623 -4.029,0.434 -3.33,0.434C-2.409,0.434 -1.707,0.716 -1.224,1.283C-0.741,1.849 -0.499,2.893 -0.499,4.414L-0.499,5.013C-3.119,5.968 -4.993,6.779 -6.12,7.445C-7.247,8.111 -8.038,8.822 -8.493,9.576C-8.826,10.121 -8.992,10.764 -8.992,11.508C-8.992,12.685 -8.651,13.634 -7.968,14.356C-7.285,15.078 -6.417,15.438 -5.362,15.438C-4.685,15.438 -4.047,15.299 -3.447,15.022C-3.047,14.834 -2.064,14.133 -0.499,12.923C-0.488,13.834 -0.322,14.478 0,14.855ZM-3.83,13.506C-4.452,13.506 -5.001,13.243 -5.479,12.715C-5.956,12.188 -6.194,11.525 -6.194,10.725C-6.194,10.092 -6.006,9.509 -5.629,8.977C-5.251,8.444 -4.624,7.933 -3.747,7.445C-3.258,7.168 -2.176,6.695 -0.499,6.029L-0.499,11.841C-1.876,12.952 -2.986,13.506 -3.83,13.506Z" style="fill:none;fill-rule:nonzero;stroke:rgb(35,31,32);stroke-width:1px;"/>
                        </g>
                    </g>
                </g>
                <g>
                    <g>
                        <text x="1996.38px" y="1934.23px" style="font-family:'TimesNewRomanPSMT', 'Times New Roman', serif;font-size:34.105px;fill:rgb(3,4,5);">4</text>
                        <g transform="matrix(1,0,0,1,2009.22,1919.51)">
                            <path d="M0,6.396L0,-8.326L-1.832,-8.326L-12.307,6.628L-12.307,8.76L-2.748,8.76L-2.748,14.722L0,14.722L0,8.76L3.03,8.76L3.03,6.396L0,6.396ZM-10.675,6.396L-2.748,-4.812L-2.748,6.396L-10.675,6.396Z" style="fill:none;fill-rule:nonzero;stroke:rgb(35,31,32);stroke-width:1px;"/>
                        </g>
                    </g>
                </g>
                <g transform="matrix(1,0,0,1,1992.73,1907.44)">
                    <path d="M0,0L24.361,0" style="fill:none;fill-rule:nonzero;stroke:rgb(35,31,32);stroke-width:1.75px;stroke-miterlimit:4;"/>
                </g>
            </g>
            <g id="Hourglasses">
                <g id="Now-Hourglass" serif:id="Now Hourglass" transform="matrix(1,-0.000403754,-0.000403754,-1,1713.65,766.355)">
                    <path d="M0.127,0.082L408.792,0.082L-0.127,-628.468L408.538,-628.633L0.127,0.082Z" style="fill:white;fill-rule:nonzero;stroke:rgb(35,31,32);stroke-width:13.97px;"/>
                </g>
                <g id="Past-Hourglass" serif:id="Past Hourglass" transform="matrix(0.000401307,1,1,-0.000401307,1666.75,1394.58)">
                    <path d="M-518.4,109.943L-109.735,109.943L-518.652,-518.608L-109.987,-518.772L-518.4,109.943Z" style="fill:white;fill-rule:nonzero;stroke:rgb(35,31,32);stroke-width:6.99px;"/>
                </g>
                <g id="Right-Hourglass" serif:id="Right Hourglass" transform="matrix(0.000403754,1,1,-0.000403754,2578.38,1394.58)">
                    <path d="M-518.399,109.943L-109.734,109.943L-518.652,-518.608L-109.987,-518.773L-518.399,109.943Z" style="fill:white;fill-rule:nonzero;stroke:rgb(35,31,32);stroke-width:6.99px;"/>
                </g>
            </g>
            <g id="Horizon-Line" serif:id="Horizon Line">
                <g transform="matrix(-1,0,0,1,997.573,1080.46)">
                    <path d="M-910.013,0L0,0" style="fill:none;fill-rule:nonzero;stroke:rgb(35,31,32);stroke-width:5.24px;stroke-dasharray:7.03,7.03;"/>
                </g>
                <g transform="matrix(0.999998,-0.00190071,-0.00190071,-0.999998,1934.58,1083.05)">
                    <path d="M-0.001,0.856L901.24,0.856" style="fill:none;fill-rule:nonzero;stroke:rgb(35,31,32);stroke-width:5.24px;stroke-dasharray:6.96,6.96;"/>
                </g>
                <g transform="matrix(1,0,8.32667e-19,1,2832.4,1067.64)">
                    <path d="M0,25.71L-2.148,23.412L9.185,12.839L-2.189,2.306L-0.049,0L13.801,12.83L0,25.71Z" style="fill:rgb(35,31,32);fill-rule:nonzero;"/>
                </g>
                <g transform="matrix(1,0,0,1,1000.98,1093.32)">
                    <path d="M0,-25.71L2.144,-23.408L-9.21,-12.856L2.144,-2.302L0,0L-13.825,-12.856L0,-25.71Z" style="fill:rgb(35,31,32);fill-rule:nonzero;"/>
                </g>
                <g transform="matrix(0.999999,-0.00171772,-0.00171772,-0.999999,2839.3,1080.48)">
                    <path d="M-0,0.003L3.493,0.003" style="fill:none;fill-rule:nonzero;stroke:rgb(35,31,32);stroke-width:5.24px;"/>
                </g>
            </g>
            <g id="Dashed-lines" serif:id="Dashed lines">
                <g id="Left-diagonal" serif:id="Left diagonal" transform="matrix(1,0,0,1,1775.67,955.271)">
                    <path d="M0,-0.225L0.811,-0.549L0.811,0.324" style="fill:none;fill-rule:nonzero;stroke:rgb(35,31,32);stroke-width:3.49px;"/>
                </g>
                <g id="Left-diagonal1" serif:id="Left diagonal" transform="matrix(0.000651809,1,1,-0.000651809,1896.23,1082.04)">
                    <path d="M-119.589,-119.667L119.745,-119.667" style="fill:none;fill-rule:nonzero;stroke:rgb(35,31,32);stroke-width:3.49px;stroke-dasharray:1.73,6.94;"/>
                </g>
                <g id="Left-diagonal2" serif:id="Left diagonal" transform="matrix(1,0,0,1,1776.64,1206.21)">
                    <path d="M0,-0.873L0,0L-0.81,-0.324" style="fill:none;fill-rule:nonzero;stroke:rgb(35,31,32);stroke-width:3.49px;"/>
                </g>
                <g id="Left-diagonal3" serif:id="Left diagonal" transform="matrix(1,0,0,1,1148.74,955.271)">
                    <path d="M0,-0.225L-0.811,-0.549L-0.811,0.324" style="fill:none;fill-rule:nonzero;stroke:rgb(35,31,32);stroke-width:3.49px;"/>
                </g>
                <g id="Left-diagonal4" serif:id="Left diagonal" transform="matrix(0,1,1,0,1267.6,1082.2)">
                    <path d="M-119.667,-119.667L119.667,-119.667" style="fill:none;fill-rule:nonzero;stroke:rgb(35,31,32);stroke-width:3.49px;stroke-dasharray:1.73,6.94;"/>
                </g>
                <g id="Left-diagonal5" serif:id="Left diagonal" transform="matrix(1,0,0,1,1147.93,1206.21)">
                    <path d="M0,-0.873L0,0L0.811,-0.324" style="fill:none;fill-rule:nonzero;stroke:rgb(35,31,32);stroke-width:3.49px;"/>
                </g>
                <g id="Right-diagonal-dash" serif:id="Right diagonal dash" transform="matrix(1,0,0,1,2687.31,955.27)">
                    <path d="M0,-0.224L0.811,-0.549L0.812,0.325" style="fill:none;fill-rule:nonzero;stroke:rgb(35,31,32);stroke-width:3.49px;"/>
                </g>
                <g id="Right-diagonal-dash1" serif:id="Right diagonal dash" transform="matrix(0.000651809,1,1,-0.000651809,2807.87,1082.04)">
                    <path d="M-119.589,-119.667L119.745,-119.667" style="fill:none;fill-rule:nonzero;stroke:rgb(35,31,32);stroke-width:3.49px;stroke-dasharray:1.73,6.94;"/>
                </g>
                <g id="Right-diagonal-dash2" serif:id="Right diagonal dash" transform="matrix(1,0,0,1,2688.28,1206.21)">
                    <path d="M0,-0.873L0,0L-0.81,-0.324" style="fill:none;fill-rule:nonzero;stroke:rgb(35,31,32);stroke-width:3.49px;"/>
                </g>
                <g id="Right-diagonal-dash3" serif:id="Right diagonal dash" transform="matrix(1,0,0,1,2060.38,955.27)">
                    <path d="M0,-0.224L-0.811,-0.549L-0.811,0.325" style="fill:none;fill-rule:nonzero;stroke:rgb(35,31,32);stroke-width:3.49px;"/>
                </g>
                <g id="Right-diagonal-dash4" serif:id="Right diagonal dash" transform="matrix(0,1,1,0,2179.23,1082.2)">
                    <path d="M-119.667,-119.667L119.667,-119.667" style="fill:none;fill-rule:nonzero;stroke:rgb(35,31,32);stroke-width:3.49px;stroke-dasharray:1.73,6.94;"/>
                </g>
                <g id="Right-diagonal-dash5" serif:id="Right diagonal dash" transform="matrix(1,0,0,1,2059.57,1206.21)">
                    <path d="M0,-0.873L0,0L0.811,-0.324" style="fill:none;fill-rule:nonzero;stroke:rgb(35,31,32);stroke-width:3.49px;"/>
                </g>
                <g id="Ctr-diagonal-dash" serif:id="Ctr diagonal dash" transform="matrix(1,0,0,1,2044.31,1398.15)">
                    <path d="M0,-0.812L0.324,-0.001L-0.549,0" style="fill:none;fill-rule:nonzero;stroke:rgb(35,31,32);stroke-width:3.49px;"/>
                </g>
                <g id="Ctr-diagonal-dash1" serif:id="Ctr diagonal dash" transform="matrix(-1,0.000651809,0.000651809,1,1797.49,1398.39)">
                    <path d="M-239.334,-0.078L0,-0.078" style="fill:none;fill-rule:nonzero;stroke:rgb(35,31,32);stroke-width:3.49px;stroke-dasharray:1.73,6.94;"/>
                </g>
                <g id="Ctr-diagonal-dash2" serif:id="Ctr diagonal dash" transform="matrix(1,0,0,1,1794.02,1397.5)">
                    <path d="M0,0.81L-0.873,0.81L-0.549,0" style="fill:none;fill-rule:nonzero;stroke:rgb(35,31,32);stroke-width:3.49px;"/>
                </g>
                <g id="Ctr-diagonal-dash3" serif:id="Ctr diagonal dash" transform="matrix(1,0,0,1,2044.31,769.6)">
                    <path d="M0,0.811L0.324,0L-0.549,0" style="fill:none;fill-rule:nonzero;stroke:rgb(35,31,32);stroke-width:3.49px;"/>
                </g>
                <g id="Ctr-diagonal-dash4" serif:id="Ctr diagonal dash" transform="matrix(-1,0,0,1,1797.49,769.6)">
                    <path d="M-239.334,0L0,0" style="fill:none;fill-rule:nonzero;stroke:rgb(35,31,32);stroke-width:3.49px;stroke-dasharray:1.73,6.94;"/>
                </g>
                <g id="Ctr-diagonal-dash5" serif:id="Ctr diagonal dash" transform="matrix(1,0,0,1,1794.02,770.411)">
                    <path d="M0,-0.811L-0.873,-0.811L-0.549,0" style="fill:none;fill-rule:nonzero;stroke:rgb(35,31,32);stroke-width:3.49px;"/>
                </g>
                <g id="Horizon-dash" serif:id="Horizon dash" transform="matrix(-1,0,0,1,1914.61,1080.46)">
                    <path d="M-3.493,0L0,0" style="fill:none;fill-rule:nonzero;stroke:rgb(35,31,32);stroke-width:5.24px;"/>
                </g>
                <g id="Horizon-dash1" serif:id="Horizon dash" transform="matrix(-1,0,0,1,990.567,1080.46)">
                    <path d="M-3.493,0L0,0" style="fill:none;fill-rule:nonzero;stroke:rgb(35,31,32);stroke-width:5.24px;"/>
                </g>
                <g id="Horizon-dash2" serif:id="Horizon dash" transform="matrix(0.999999,-0.00171772,-0.00171772,-0.999999,1924.13,1082.22)">
                    <path d="M-0,0.003L3.493,0.003" style="fill:none;fill-rule:nonzero;stroke:rgb(35,31,32);stroke-width:5.24px;"/>
                </g>
                <g id="Lft-diagonal-top-to-right" serif:id="Lft diagonal top to right" transform="matrix(-0.928476,-0.371391,-0.371391,0.928476,1219.91,850.515)">
                    <path d="M-641.202,123.485L23.781,123.485" style="fill:none;fill-rule:nonzero;stroke:rgb(35,31,32);stroke-width:3.49px;stroke-dasharray:1.74,6.95;"/>
                </g>
                <g id="Lft-diagonal-bottom-to-top" serif:id="Lft diagonal bottom to top" transform="matrix(0.928443,-0.371474,-0.371474,-0.928443,1223.14,1309.12)">
                    <path d="M-23.787,123.484L641.047,123.484" style="fill:none;fill-rule:nonzero;stroke:rgb(35,31,32);stroke-width:3.49px;stroke-dasharray:1.74,6.94;"/>
                </g>
                <g id="Rt-diagonal-top-to-bottom" serif:id="Rt diagonal top to bottom" transform="matrix(-0.928477,-0.37139,-0.37139,0.928477,2131.54,850.516)">
                    <path d="M-641.202,123.484L23.781,123.484" style="fill:none;fill-rule:nonzero;stroke:rgb(35,31,32);stroke-width:3.49px;stroke-dasharray:1.74,6.95;"/>
                </g>
                <g id="Rt-diagonal-bottom-to-top" serif:id="Rt diagonal bottom to top" transform="matrix(0.928443,-0.371474,-0.371474,-0.928443,2134.78,1309.12)">
                    <path d="M-23.787,123.484L641.047,123.484" style="fill:none;fill-rule:nonzero;stroke:rgb(35,31,32);stroke-width:3.49px;stroke-dasharray:1.74,6.94;"/>
                </g>
                <g id="Ctr-diagonal-right-to-right" serif:id="Ctr diagonal right to right" transform="matrix(0.371391,-0.928476,-0.928476,-0.371391,2160.3,1311.65)">
                    <path d="M-209.007,308.71L455.976,308.71" style="fill:none;fill-rule:nonzero;stroke:rgb(35,31,32);stroke-width:3.49px;stroke-dasharray:1.74,6.95;"/>
                </g>
                <g id="Ctr-diagonal-left-to-right" serif:id="Ctr diagonal left to right" transform="matrix(0.371474,0.928443,0.928443,-0.371474,2160.21,856.192)">
                    <path d="M-208.933,-308.63L455.901,-308.63" style="fill:none;fill-rule:nonzero;stroke:rgb(35,31,32);stroke-width:3.49px;stroke-dasharray:1.74,6.94;"/>
                </g>
            </g>
            <g id="Center-text" serif:id="Center text">
                <text x="1179.37px" y="1049.03px" style="font-family:'LucidaBlackletter', 'Lucida Blackletter';font-size:66.364px;fill:rgb(35,31,32);">t1</text>
                <g>
                    <text x="1792.36px" y="1159.05px" style="font-family:'LucidaBlackletter', 'Lucida Blackletter';font-size:66.364px;fill:rgb(35,31,32);">t2</text>
                    <text x="1891.91px" y="1220.17px" style="font-family:'LucidaBlackletter', 'Lucida Blackletter';font-size:66.364px;fill:rgb(35,31,32);">t3</text>
                </g>
                <text x="1980.98px" y="1159.05px" style="font-family:'LucidaBlackletter', 'Lucida Blackletter';font-size:66.364px;fill:rgb(35,31,32);">t4</text>
                <text x="2609.69px" y="1049.03px" style="font-family:'LucidaBlackletter', 'Lucida Blackletter';font-size:66.364px;fill:rgb(35,31,32);">t5</text>
            </g>
            <g id="Penrose">
                <text x="1902.39px" y="184.545px" style="font-family:'LucidaBlackletter', 'Lucida Blackletter';font-size:66.364px;fill:rgb(35,31,32);">a</text>
                <g transform="matrix(1,0,0,1,1897.26,512.174)">
                    <path d="M0,-296.04L137.007,-52.187L-15.292,-52.103L-44.505,0.11L225.16,0.152L60.65,-296.192L0,-296.04Z" style="fill:white;fill-rule:nonzero;stroke:rgb(35,31,32);stroke-width:3.49px;stroke-linejoin:round;stroke-miterlimit:4;"/>
                </g>
                <g transform="matrix(1,0,0,1,1897.26,565.98)">
                    <path d="M0,-349.866L-162.729,-53.702L-132.895,0L2.107,-244.643L77.439,-105.912L137.108,-105.912L0,-349.866Z" style="fill:white;fill-rule:nonzero;stroke:rgb(35,31,32);stroke-width:3.49px;stroke-linejoin:round;stroke-miterlimit:4;"/>
                </g>
                <g transform="matrix(1,0,0,1,1899.39,567.472)">
                    <path d="M0,-246.089L29.75,-191.288L-46.766,-55.148L223.045,-55.008L194.639,0L-135.021,-1.511L0,-246.089Z" style="fill:white;fill-rule:nonzero;stroke:rgb(35,31,32);stroke-width:3.49px;"/>
                </g>
            </g>
        </g>
    </g>
</svg>
